<svg width="23" height="23" viewBox="0 0 23 23" fill="none" xmlns="http://www.w3.org/2000/svg">
<path d="M17.2859 14.2407C15.7276 14.0979 14.8776 16.2396 13.7443 16.8108C11.9026 17.8102 8.50261 14.2407 8.50261 14.2407C8.50261 14.2407 4.96095 10.8139 5.81095 8.95775C6.51928 7.8155 8.64428 6.9588 8.50261 5.3882C8.36095 3.96038 5.24428 -1.17978 3.68595 0.248043C0.285946 3.38925 0.00261266 4.67429 0.00261266 7.24437C-0.139054 11.6706 5.52761 17.2391 5.52761 17.2391C6.09428 17.8102 11.0526 22.9504 15.4443 22.8076C17.9943 22.8076 19.2693 22.5221 22.3859 19.0953C23.8026 17.5247 18.8443 14.3835 17.2859 14.2407V14.2407Z" fill="white"/>
</svg>
